<svg width="20" height="20" viewBox="0 0 20 20" fill="none" xmlns="http://www.w3.org/2000/svg">
<path fill-rule="evenodd" clip-rule="evenodd" d="M10 1.25C10.1658 1.25 10.3247 1.31585 10.4419 1.43306C10.5592 1.55027 10.625 1.70924 10.625 1.875V16.6163L14.5575 12.6825C14.6749 12.5651 14.834 12.4992 15 12.4992C15.166 12.4992 15.3251 12.5651 15.4425 12.6825C15.5599 12.7999 15.6258 12.959 15.6258 13.125C15.6258 13.291 15.5599 13.4501 15.4425 13.5675L10.4425 18.5675C10.3844 18.6257 10.3155 18.6719 10.2395 18.7034C10.1636 18.7349 10.0822 18.7511 10 18.7511C9.91779 18.7511 9.83639 18.7349 9.76046 18.7034C9.68453 18.6719 9.61556 18.6257 9.5575 18.5675L4.5575 13.5675C4.44015 13.4501 4.37421 13.291 4.37421 13.125C4.37421 12.959 4.44015 12.7999 4.5575 12.6825C4.67486 12.5651 4.83403 12.4992 5 12.4992C5.16597 12.4992 5.32515 12.5651 5.4425 12.6825L9.375 16.6163V1.875C9.375 1.70924 9.44085 1.55027 9.55806 1.43306C9.67527 1.31585 9.83424 1.25 10 1.25Z" fill="#3A3A3A"/>
</svg>
